<!-- <svg stroke="currentColor" fill="none" stroke-width="2" viewBox="0 0 24 24" aria-hidden="true" height="1em" width="1em" xmlns="http://www.w3.org/2000/svg"><path stroke-linecap="round" stroke-linejoin="round" d="M4 16v1a3 3 0 003 3h10a3 3 0 003-3v-1m-4-4l-4 4m0 0l-4-4m4 4V4"></path></svg>
 -->
 <svg xmlns="http://www.w3.org/2000/svg" width="14" height="14" viewBox="0 0 14 14">
  <path id="Vector" d="M7,0a1,1,0,0,1,1,1V8.586L9.293,7.293a1,1,0,0,1,1.414,1.414l-3,3a1,1,0,0,1-1.414,0l-3-3A1,1,0,0,1,4.707,7.293L6,8.586V1A1,1,0,0,1,7,0ZM2,10a1,1,0,0,0-1,1v2a1,1,0,0,0,1,1H12a1,1,0,0,0,1-1V11a1,1,0,0,0-1-1H2Z" fill="#001b34" opacity="0.6"/>
</svg>